# --- WARSTWA DOLNA (Y: 50-100) ---
# Klocek 1 (Lewy-Tył)
v 50 50 50; v 50 100 50; v 100 100 50; v 100 50 50; v 50 50 100; v 50 100 100; v 100 100 100; v 100 50 100
# Klocek 2 (Środek-Tył)
v 104 50 50; v 104 100 50; v 154 100 50; v 154 50 50; v 104 50 100; v 104 100 100; v 154 100 100; v 154 50 100
# Klocek 3 (Prawy-Tył)
v 158 50 50; v 158 100 50; v 208 100 50; v 208 50 50; v 158 50 100; v 158 100 100; v 208 100 100; v 208 50 100
# Klocek 4 (Lewy-ŚrodekZ)
v 50 50 104; v 50 100 104; v 100 100 104; v 100 50 104; v 50 50 154; v 50 100 154; v 100 100 154; v 100 50 154
# Klocek 5 (Środek-ŚrodekZ)
v 104 50 104; v 104 100 104; v 154 100 104; v 154 50 104; v 104 50 154; v 104 100 154; v 154 100 154; v 154 50 154
# Klocek 6 (Prawy-ŚrodekZ)
v 158 50 104; v 158 100 104; v 208 100 104; v 208 50 104; v 158 50 154; v 158 100 154; v 208 100 154; v 208 50 154
# Klocek 7 (Lewy-Front)
v 50 50 158; v 50 100 158; v 100 100 158; v 100 50 158; v 50 50 208; v 50 100 208; v 100 100 208; v 100 50 208
# Klocek 8 (Środek-Front)
v 104 50 158; v 104 100 158; v 154 100 158; v 154 50 158; v 104 50 208; v 104 100 208; v 154 100 208; v 154 50 208
# Klocek 9 (Prawy-Front)
v 158 50 158; v 158 100 158; v 208 100 158; v 208 50 158; v 158 50 208; v 158 100 208; v 208 100 208; v 208 50 208

# --- WARSTWA ŚRODKOWA (Y: 104-154) ---
# Klocki 10-18 (Analogicznie jak wyżej, Y+54)
v 50 104 50; v 50 154 50; v 100 154 50; v 100 104 50; v 50 104 100; v 50 154 100; v 100 154 100; v 100 104 100
v 104 104 50; v 104 154 50; v 154 154 50; v 154 104 50; v 104 104 100; v 104 154 100; v 154 154 100; v 154 104 100
v 158 104 50; v 158 154 50; v 208 154 50; v 208 104 50; v 158 104 100; v 158 154 100; v 208 154 100; v 208 104 100
v 50 104 104; v 50 154 104; v 100 154 104; v 100 104 104; v 50 104 154; v 50 154 154; v 100 154 154; v 100 104 154
v 104 104 104; v 104 154 104; v 154 154 104; v 154 104 104; v 104 104 154; v 104 154 154; v 154 154 154; v 154 104 154
v 158 104 104; v 158 154 104; v 208 154 104; v 208 104 104; v 158 104 154; v 158 154 154; v 208 154 154; v 208 104 154
v 50 104 158; v 50 154 158; v 100 154 158; v 100 104 158; v 50 104 208; v 50 154 208; v 100 154 208; v 100 104 208
v 104 104 158; v 104 154 158; v 154 154 158; v 154 104 158; v 104 104 208; v 104 154 208; v 154 154 208; v 154 104 208
v 158 104 158; v 158 154 158; v 208 154 158; v 208 104 158; v 158 104 208; v 158 154 208; v 208 154 208; v 208 104 208

# --- WARSTWA GÓRNA (Y: 158-208) ---
# Klocki 19-27 (Y+108)
v 50 158 50; v 50 208 50; v 100 208 50; v 100 158 50; v 50 158 100; v 50 208 100; v 100 208 100; v 100 158 100
v 104 158 50; v 104 208 50; v 154 208 50; v 154 158 50; v 104 158 100; v 104 208 100; v 154 208 100; v 154 158 100
v 158 158 50; v 158 208 50; v 208 208 50; v 208 158 50; v 158 158 100; v 158 208 100; v 208 208 100; v 208 158 100
v 50 158 104; v 50 208 104; v 100 208 104; v 100 158 104; v 50 158 154; v 50 208 154; v 100 208 154; v 100 158 154
v 104 158 104; v 104 208 104; v 154 208 104; v 154 158 104; v 104 158 154; v 104 208 154; v 154 208 154; v 154 158 154
v 158 158 104; v 158 208 104; v 208 208 104; v 208 158 104; v 158 158 154; v 158 208 154; v 208 208 154; v 208 158 154
v 50 158 158; v 50 208 158; v 100 208 158; v 100 158 158; v 50 158 208; v 50 208 208; v 100 208 208; v 100 158 208
v 104 158 158; v 104 208 158; v 154 208 158; v 154 158 158; v 104 158 208; v 104 208 208; v 154 208 208; v 154 158 208
v 158 158 158; v 158 208 158; v 208 208 158; v 208 158 158; v 158 158 208; v 158 208 208; v 208 208 208; v 208 158 208

c #FFFFFF  # 1: Biały (Góra)
c #009b48  # 2: Zielony (Front)
c #b71234  # 3: Czerwony (Prawo)
c #ffd500  # 4: Żółty (Dół)
c #0046ad  # 5: Niebieski (Tył)
c #ff5800  # 6: Pomarańczowy (Lewo)
c #121212  # 7: Czarny (Wnętrze)

# WARSTWA DOLNA (Klocki 1-9)
# Klocek 1 (Narożnik: Tył, Lewo, Dół)
f 1 2 3 4 5; f 5 8 7 6 7; f 1 5 6 2 6; f 4 3 7 8 7; f 2 6 7 3 7; f 1 4 8 5 4
# Klocek 2 (Krawędź: Tył, Dół)
f 9 10 11 12 5; f 13 16 15 14 7; f 9 13 14 10 7; f 12 11 15 16 7; f 10 14 15 11 7; f 9 12 16 13 4
# Klocek 3 (Narożnik: Tył, Prawo, Dół)
f 17 18 19 20 5; f 21 24 23 22 7; f 17 21 22 18 7; f 20 19 23 24 3; f 18 22 23 19 7; f 17 20 24 21 4
# Klocek 4 (Krawędź: Lewo, Dół)
f 25 26 27 28 7; f 29 32 31 30 7; f 25 29 30 26 6; f 28 27 31 32 7; f 26 30 31 27 7; f 25 28 32 29 4
# Klocek 5 (Centrum Dolne: Dół)
f 33 34 35 36 7; f 37 40 39 38 7; f 33 37 38 34 7; f 36 35 39 40 7; f 34 38 39 35 7; f 33 36 40 37 4
# Klocek 6 (Krawędź: Prawo, Dół)
f 41 42 43 44 7; f 45 48 47 46 7; f 41 45 46 42 7; f 44 43 47 48 3; f 42 46 47 43 7; f 41 44 48 45 4
# Klocek 7 (Narożnik: Front, Lewo, Dół)
f 49 50 51 52 7; f 53 56 55 54 2; f 49 53 54 50 6; f 52 51 55 56 7; f 50 54 55 51 7; f 49 52 56 53 4
# Klocek 8 (Krawędź: Front, Dół)
f 57 58 59 60 7; f 61 64 63 62 2; f 57 61 62 58 7; f 60 59 63 64 7; f 58 62 63 59 7; f 57 60 64 61 4
# Klocek 9 (Narożnik: Front, Prawo, Dół)
f 65 66 67 68 7; f 69 72 71 70 2; f 65 69 70 66 7; f 68 67 71 72 3; f 66 70 71 67 7; f 65 68 72 69 4

# Sześcian 10 (Środek-Tył-Lewo)
f 73 74 75 76 5; f 77 80 79 78 7; f 73 77 78 74 6; f 76 75 79 80 7; f 74 78 79 75 7; f 73 76 80 77 7

# Sześcian 11 (Środek-Tył-ŚrodekX)
f 81 82 83 84 5; f 85 88 87 86 7; f 81 85 86 82 7; f 84 83 87 88 7; f 82 86 87 83 7; f 81 84 88 85 7

# Sześcian 12 (Środek-Tył-Prawo)
f 89 90 91 92 5; f 93 96 95 94 7; f 89 93 94 90 7; f 92 91 95 96 3; f 90 94 95 91 7; f 89 92 96 93 7

# Sześcian 13 (Środek-ŚrodekZ-Lewo)
f 97 98 99 100 7; f 101 104 103 102 7; f 97 101 102 98 6; f 100 99 103 104 7; f 98 102 103 99 7; f 97 100 104 101 7

# Sześcian 14 (SAMIUTKI ŚRODEK KOSTKI - wszystko czarne!)
f 105 106 107 108 7; f 109 112 111 110 7; f 105 109 110 106 7; f 108 107 111 112 7; f 106 110 111 107 7; f 105 108 112 109 7

# Sześcian 15 (Środek-ŚrodekZ-Prawo)
f 113 114 115 116 7; f 117 120 119 118 7; f 113 117 118 114 7; f 116 115 119 120 3; f 114 118 119 115 7; f 113 116 120 117 7

# Sześcian 16 (Środek-Front-Lewo)
f 121 122 123 124 7; f 125 128 127 126 2; f 121 125 126 122 6; f 124 123 127 128 7; f 122 126 127 123 7; f 121 124 128 125 7

# Sześcian 17 (Środek-Front-ŚrodekX)
f 129 130 131 132 7; f 133 136 135 134 2; f 129 133 134 130 7; f 132 131 135 136 7; f 130 134 135 131 7; f 129 132 136 133 7

# Sześcian 18 (Środek-Front-Prawo)
f 137 138 139 140 7; f 141 144 143 142 2; f 137 141 142 138 7; f 140 139 143 144 3; f 138 142 143 139 7; f 137 140 144 141 7

# --- WARSTWA GÓRNA (Y: 158-208) ---

# Sześcian 19 (Góra-Tył-Lewo)
f 145 146 147 148 5; f 149 152 151 150 7; f 145 149 150 146 6; f 148 147 151 152 7; f 146 150 151 147 1; f 145 148 152 149 7

# Sześcian 20 (Góra-Tył-ŚrodekX)
f 153 154 155 156 5; f 157 160 159 158 7; f 153 157 158 154 7; f 156 155 159 160 7; f 154 158 159 155 1; f 153 156 160 157 7

# Sześcian 21 (Góra-Tył-Prawo)
f 161 162 163 164 5; f 165 168 167 166 7; f 161 165 166 162 7; f 164 163 167 168 3; f 162 166 167 163 1; f 161 164 168 165 7

# Sześcian 22 (Góra-ŚrodekZ-Lewo)
f 169 170 171 172 7; f 173 176 175 174 7; f 169 173 174 170 6; f 172 171 175 176 7; f 170 174 175 171 1; f 169 172 176 173 7

# Sześcian 23 (Góra-ŚrodekZ-ŚrodekX)
f 177 178 179 180 7; f 181 184 183 182 7; f 177 181 182 178 7; f 180 179 183 184 7; f 178 182 183 179 1; f 177 180 184 181 7

# Sześcian 24 (Góra-ŚrodekZ-Prawo)
f 185 186 187 188 7; f 189 192 191 190 7; f 185 189 190 186 7; f 188 187 191 192 3; f 186 190 191 187 1; f 185 188 192 189 7

# Sześcian 25 (Góra-Front-Lewo)
f 193 194 195 196 7; f 197 200 199 198 2; f 193 197 198 194 6; f 196 195 199 200 7; f 194 198 199 195 1; f 193 196 200 197 7

# Sześcian 26 (Góra-Front-ŚrodekX)
f 201 202 203 204 7; f 205 208 207 206 2; f 201 205 206 202 7; f 204 203 207 208 7; f 202 206 207 203 1; f 201 204 208 205 7

# Sześcian 27 (Góra-Front-Prawo)
f 209 210 211 212 7; f 213 216 215 214 2; f 209 213 214 210 7; f 212 211 215 216 3; f 210 214 215 211 1; f 209 212 216 213 7
