v 50 50 50
v 50 100 50
v 100 100 50
v 100 50 50
v 50 50 100
v 50 100 100
v 100 100 100
v 100 50 100
v 120 50 50
v 120 100 50
v 170 100 50
v 170 50 50
v 120 50 100
v 120 100 100
v 170 100 100
v 170 50 100
v 50 120 50
v 50 170 50
v 100 170 50
v 100 120 50
v 50 120 100
v 50 170 100
v 100 170 100
v 100 120 100
v 120 120 50
v 120 170 50
v 170 170 50
v 170 120 50
v 120 120 100
v 120 170 100
v 170 170 100
v 170 120 100
v 50 50 120
v 50 100 120
v 100 100 120
v 100 50 120
v 50 50 170
v 50 100 170
v 100 100 170
v 100 50 170
v 120 50 120
v 120 100 120
v 170 100 120
v 170 50 120
v 120 50 170
v 120 100 170
v 170 100 170
v 170 50 170
v 50 120 120
v 50 170 120
v 100 170 120
v 100 120 120
v 50 120 170
v 50 170 170
v 100 170 170
v 100 120 170
v 120 120 120
v 120 170 120
v 170 170 120
v 170 120 120
v 120 120 170
v 120 170 170
v 170 170 170
v 170 120 170

# Sześcian 1
f 1 2 3 4
f 5 8 7 6
f 1 5 6 2
f 4 3 7 8
f 2 6 7 3
f 1 4 8 5

# Sześcian 2
f 9 10 11 12
f 13 16 15 14
f 9 13 14 10
f 12 11 15 16
f 10 14 15 11
f 9 12 16 13

# Sześcian 3
f 17 18 19 20
f 21 24 23 22
f 17 21 22 18
f 20 19 23 24
f 18 22 23 19
f 17 20 24 21

# Sześcian 4
f 25 26 27 28
f 29 32 31 30
f 25 29 30 26
f 28 27 31 32
f 26 30 31 27
f 25 28 32 29

# Sześcian 5
f 33 34 35 36
f 37 40 39 38
f 33 37 38 34
f 36 35 39 40
f 34 38 39 35
f 33 36 40 37

# Sześcian 6
f 41 42 43 44
f 45 48 47 46
f 41 45 46 42
f 44 43 47 48
f 42 46 47 43
f 41 44 48 45

# Sześcian 7
f 49 50 51 52
f 53 56 55 54
f 49 53 54 50
f 52 51 55 56
f 50 54 55 51
f 49 52 56 53

# Sześcian 8
f 57 58 59 60
f 61 64 63 62
f 57 61 62 58
f 60 59 63 64
f 58 62 63 59
f 57 60 64 61